ModelForces
version=1
nRows=4
nColumns=206
inDegrees=no

This file contains the forces exerted on a model during a simulation.

A force is a generalized force, meaning that it can be either a force (N) or a torque (Nm).

Units are S.I. units (second, meters, Newtons, ...)
Angles are in degrees.

endheader
time	glut_med1_r	glut_med2_r	glut_med3_r	glut_min1_r	glut_min2_r	glut_min3_r	semimem_r	semiten_r	bifemlh_r	bifemsh_r	sar_r	add_long_r	add_brev_r	add_mag1_r	add_mag2_r	add_mag3_r	tfl_r	pect_r	grac_r	glut_max1_r	glut_max2_r	glut_max3_r	iliacus_r	psoas_r	quad_fem_r	gem_r	peri_r	rect_fem_r	vas_med_r	vas_int_r	vas_lat_r	med_gas_r	lat_gas_r	soleus_r	tib_post_r	flex_dig_r	flex_hal_r	tib_ant_r	per_brev_r	per_long_r	per_tert_r	ext_dig_r	ext_hal_r	glut_med1_l	glut_med2_l	glut_med3_l	glut_min1_l	glut_min2_l	glut_min3_l	semimem_l	semiten_l	bifemlh_l	bifemsh_l	sar_l	add_long_l	add_brev_l	add_mag1_l	add_mag2_l	add_mag3_l	tfl_l	pect_l	grac_l	glut_max1_l	glut_max2_l	glut_max3_l	iliacus_l	psoas_l	quad_fem_l	gem_l	peri_l	rect_fem_l	vas_med_l	vas_int_l	vas_lat_l	med_gas_l	lat_gas_l	soleus_l	tib_post_l	flex_dig_l	flex_hal_l	tib_ant_l	per_brev_l	per_long_l	per_tert_l	ext_dig_l	ext_hal_l	ercspn_r	ercspn_l	intobl_r	intobl_l	extobl_r	extobl_l	femur_lat_meniscii_l.femur_lat_l.force.X	femur_lat_meniscii_l.femur_lat_l.force.Y	femur_lat_meniscii_l.femur_lat_l.force.Z	femur_lat_meniscii_l.femur_lat_l.torque.X	femur_lat_meniscii_l.femur_lat_l.torque.Y	femur_lat_meniscii_l.femur_lat_l.torque.Z	femur_lat_meniscii_l.meniscus_lat_l.force.X	femur_lat_meniscii_l.meniscus_lat_l.force.Y	femur_lat_meniscii_l.meniscus_lat_l.force.Z	femur_lat_meniscii_l.meniscus_lat_l.torque.X	femur_lat_meniscii_l.meniscus_lat_l.torque.Y	femur_lat_meniscii_l.meniscus_lat_l.torque.Z	femur_med_meniscii_l.femur_med_l.force.X	femur_med_meniscii_l.femur_med_l.force.Y	femur_med_meniscii_l.femur_med_l.force.Z	femur_med_meniscii_l.femur_med_l.torque.X	femur_med_meniscii_l.femur_med_l.torque.Y	femur_med_meniscii_l.femur_med_l.torque.Z	femur_med_meniscii_l.meniscus_med_l.force.X	femur_med_meniscii_l.meniscus_med_l.force.Y	femur_med_meniscii_l.meniscus_med_l.force.Z	femur_med_meniscii_l.meniscus_med_l.torque.X	femur_med_meniscii_l.meniscus_med_l.torque.Y	femur_med_meniscii_l.meniscus_med_l.torque.Z	femur_lat_meniscii_r.femur_lat_r.force.X	femur_lat_meniscii_r.femur_lat_r.force.Y	femur_lat_meniscii_r.femur_lat_r.force.Z	femur_lat_meniscii_r.femur_lat_r.torque.X	femur_lat_meniscii_r.femur_lat_r.torque.Y	femur_lat_meniscii_r.femur_lat_r.torque.Z	femur_lat_meniscii_r.meniscus_lat_r.force.X	femur_lat_meniscii_r.meniscus_lat_r.force.Y	femur_lat_meniscii_r.meniscus_lat_r.force.Z	femur_lat_meniscii_r.meniscus_lat_r.torque.X	femur_lat_meniscii_r.meniscus_lat_r.torque.Y	femur_lat_meniscii_r.meniscus_lat_r.torque.Z	femur_med_meniscii_r.femur_med_r.force.X	femur_med_meniscii_r.femur_med_r.force.Y	femur_med_meniscii_r.femur_med_r.force.Z	femur_med_meniscii_r.femur_med_r.torque.X	femur_med_meniscii_r.femur_med_r.torque.Y	femur_med_meniscii_r.femur_med_r.torque.Z	femur_med_meniscii_r.meniscus_med_r.force.X	femur_med_meniscii_r.meniscus_med_r.force.Y	femur_med_meniscii_r.meniscus_med_r.force.Z	femur_med_meniscii_r.meniscus_med_r.torque.X	femur_med_meniscii_r.meniscus_med_r.torque.Y	femur_med_meniscii_r.meniscus_med_r.torque.Z	femur_med_tibia_l.tibia_upper_l.force.X	femur_med_tibia_l.tibia_upper_l.force.Y	femur_med_tibia_l.tibia_upper_l.force.Z	femur_med_tibia_l.tibia_upper_l.torque.X	femur_med_tibia_l.tibia_upper_l.torque.Y	femur_med_tibia_l.tibia_upper_l.torque.Z	femur_med_tibia_l.femur_med_l.force.X	femur_med_tibia_l.femur_med_l.force.Y	femur_med_tibia_l.femur_med_l.force.Z	femur_med_tibia_l.femur_med_l.torque.X	femur_med_tibia_l.femur_med_l.torque.Y	femur_med_tibia_l.femur_med_l.torque.Z	femur_lat_tibia_l.tibia_upper_l.force.X	femur_lat_tibia_l.tibia_upper_l.force.Y	femur_lat_tibia_l.tibia_upper_l.force.Z	femur_lat_tibia_l.tibia_upper_l.torque.X	femur_lat_tibia_l.tibia_upper_l.torque.Y	femur_lat_tibia_l.tibia_upper_l.torque.Z	femur_lat_tibia_l.femur_lat_l.force.X	femur_lat_tibia_l.femur_lat_l.force.Y	femur_lat_tibia_l.femur_lat_l.force.Z	femur_lat_tibia_l.femur_lat_l.torque.X	femur_lat_tibia_l.femur_lat_l.torque.Y	femur_lat_tibia_l.femur_lat_l.torque.Z	femur_med_tibia_r.tibia_upper_r.force.X	femur_med_tibia_r.tibia_upper_r.force.Y	femur_med_tibia_r.tibia_upper_r.force.Z	femur_med_tibia_r.tibia_upper_r.torque.X	femur_med_tibia_r.tibia_upper_r.torque.Y	femur_med_tibia_r.tibia_upper_r.torque.Z	femur_med_tibia_r.femur_med_r.force.X	femur_med_tibia_r.femur_med_r.force.Y	femur_med_tibia_r.femur_med_r.force.Z	femur_med_tibia_r.femur_med_r.torque.X	femur_med_tibia_r.femur_med_r.torque.Y	femur_med_tibia_r.femur_med_r.torque.Z	femur_lat_tibia_r.tibia_upper_r.force.X	femur_lat_tibia_r.tibia_upper_r.force.Y	femur_lat_tibia_r.tibia_upper_r.force.Z	femur_lat_tibia_r.tibia_upper_r.torque.X	femur_lat_tibia_r.tibia_upper_r.torque.Y	femur_lat_tibia_r.tibia_upper_r.torque.Z	femur_lat_tibia_r.femur_lat_r.force.X	femur_lat_tibia_r.femur_lat_r.force.Y	femur_lat_tibia_r.femur_lat_r.force.Z	femur_lat_tibia_r.femur_lat_r.torque.X	femur_lat_tibia_r.femur_lat_r.torque.Y	femur_lat_tibia_r.femur_lat_r.torque.Z	aACL_R	pACL_R	aPCL_R	pPCL_R	aMCL_R	mMCL_R	pMCL_R	aLCL_R	mLCL_R	pLCL_R	aPCL_L	pPCL_L	aMCL_L	aLCL_L	ground_prescribedForce_-40_fx	ground_prescribedForce_-40_fy	ground_prescribedForce_-40_fz
      0.20354730	      9.89296915	      7.27091570	      7.80710072	      3.37636105	      3.95804568	      4.18214914	      4.18554696	      5.30310310	      7.80729572	      8.57063969	      1.97260289	      7.22478456	      5.24684952	      3.73984576	      3.16255146	      5.27007543	      5.40772075	      2.84727114	      1.99084205	      4.69268082	      7.13637101	      5.35083210	     25.57261267	     16.27929947	      4.62942634	      3.33106259	      5.81174969	     22.09660246	     16.32199767	     17.25202385	     23.41248470	      2.08447678	      1.31210877	     10.66247178	     20.75771583	      2.84665430	      3.22427070	     16.63805962	      5.41863240	     11.28513108	      8.54487520	      9.59965107	      2.25294013	      9.89296915	      7.27091570	      7.80710072	      3.37636105	      3.95804568	      4.18214914	     12.07207745	      5.33880510	     10.48249911	      9.21295964	      1.92766516	      7.22478456	      5.24684952	      3.73984576	      3.16255146	      5.27007543	      4.89164932	      2.84727114	      1.98535207	      4.69268082	      7.13637101	      5.35083210	     25.57261267	     16.27929947	      4.62942634	      3.33106259	      5.81174969	     14.49018932	      8.51423790	      9.81334768	     10.54165712	     20.61744139	      9.57779131	     44.19063232	     47.72476060	      4.13744842	      4.20822015	     11.35001987	      6.01628491	     16.15348000	      2.51806831	      7.49972493	      2.35549250	     31.77112304	     31.77112304	     11.67645446	     11.67645446	     29.21250527	     29.21250527	      2.76307435	     50.99597937	     -9.56042239	      5.21997485	     -0.02578839	      1.48581788	     -2.76307435	    -50.99597937	      9.56042239	     -1.74637766	      0.02558040	     -0.48301696	     -3.31599387	     20.97615968	     -3.40468921	      0.94473225	     -0.02138609	     -1.00501789	      3.31599387	    -20.97615968	      3.40468921	      0.28075727	      0.00368718	     -0.29758878	    170.11495293	    116.40209257	     43.64175326	    -20.75796870	      4.18794576	     69.77629083	   -170.11495293	   -116.40209257	    -43.64175326	      4.28444787	     -5.27018423	     -2.67616710	    424.39638278	    128.32093532	    -70.27086181	     30.86026017	     -7.48243646	    172.78865922	   -424.39638278	   -128.32093532	     70.27086181	     -3.45544001	      7.27977299	     -7.64907958	      0.00000000	      0.00000000	      0.00000000	      0.00000000	      0.00000000	      0.00000000	      0.00000000	      0.00000000	      0.00000000	      0.00000000	      0.00000000	      0.00000000	      0.00000000	      0.00000000	      0.00000000	      0.00000000	      0.00000000	      0.00000000	      0.00000000	      0.00000000	      0.00000000	      0.00000000	      0.00000000	      0.00000000	     -0.06889737	     -0.08726222	      0.05226550	     -0.00265194	      0.00150771	     -0.00097857	      0.06889737	      0.08726222	     -0.05226550	      0.02301210	     -0.00097106	      0.02871369	      0.00000000	      0.00000000	      0.00000000	      0.00000000	      0.00000000	      0.00000000	      0.00000000	      0.00000000	      0.00000000	      0.00000000	      0.00000000	      0.00000000	      0.00000000	      0.00000000	    335.84260015	    216.21072325	      0.00000000	      0.00000000	      0.00000000	      1.84157529	      0.00000000	      0.00000000	      0.00000000	      0.00000000	      0.00000001	      0.00000000	     84.26488000	    -70.70660000	      0.00000000
      0.20569234	      9.82774706	      7.22647649	      7.75879680	      3.35658872	      3.93649786	      4.15464085	      4.17058369	      5.27839752	      7.75188705	      8.50882795	      1.96326531	      7.18010858	      5.21639901	      3.71711403	      3.14287102	      5.23438225	      5.38245395	      2.83048283	      1.97956310	      4.66393521	      7.09254277	      5.31741593	     25.49123622	     16.18670776	      4.60172207	      3.31771171	      5.76621788	     22.02221255	     16.27118864	     17.19033788	     23.31662336	      2.04719174	      1.28358336	     10.46722227	     19.81478211	      3.00195793	      3.31103096	     16.54308165	      5.52444368	     11.43389624	      8.65937869	      9.20753664	      2.09325275	      9.82774706	      7.22647649	      7.75879680	      3.35658872	      3.93649786	      4.15464085	     11.98145240	      5.30389631	     10.40563968	      9.15777320	      1.91642834	      7.18010858	      5.21639901	      3.71711403	      3.14287102	      5.23438225	      4.86952693	      2.83048283	      1.97357633	      4.66393521	      7.09254277	      5.31741593	     25.49123622	     16.18670776	      4.60172207	      3.31771171	      5.76621788	     14.38497838	      8.46075806	      9.75061729	     10.47442609	     20.44982164	      9.49980106	     43.84348441	     47.57840124	      4.09992720	      4.17303004	     11.26980362	      5.97063844	     16.05587797	      2.50378370	      7.43909307	      2.33663462	     31.58464798	     31.58464798	     11.60212794	     11.60212794	     29.14546799	     29.14546799	      2.76307435	     50.99597937	     -9.56042239	      5.21997485	     -0.02578839	      1.48581788	     -2.76307435	    -50.99597937	      9.56042239	     -1.74637766	      0.02558040	     -0.48301696	     -3.31599387	     20.97615968	     -3.40468921	      0.94473225	     -0.02138609	     -1.00501789	      3.31599387	    -20.97615968	      3.40468921	      0.28075727	      0.00368718	     -0.29758878	    169.74888204	    116.44326047	     44.91937076	    -21.29200812	      4.19186910	     69.62554669	   -169.74888204	   -116.44326047	    -44.91937076	      4.32687688	     -5.29189644	     -2.66328117	    424.10827392	    128.19456014	    -67.77371879	     29.83475897	     -7.44996652	    172.67523352	   -424.10827392	   -128.19456014	     67.77371879	     -3.39012762	      7.21174675	     -7.64299566	      0.00000000	      0.00000000	      0.00000000	      0.00000000	      0.00000000	      0.00000000	      0.00000000	      0.00000000	      0.00000000	      0.00000000	      0.00000000	      0.00000000	      0.00000000	      0.00000000	      0.00000000	      0.00000000	      0.00000000	      0.00000000	      0.00000000	      0.00000000	      0.00000000	      0.00000000	      0.00000000	      0.00000000	     -0.03879416	     -0.04903581	      0.02954340	     -0.00149100	      0.00084700	     -0.00055211	      0.03879416	      0.04903581	     -0.02954340	      0.01299944	     -0.00054325	      0.01616827	      0.00000000	      0.00000000	      0.00000000	      0.00000000	      0.00000000	      0.00000000	      0.00000000	      0.00000000	      0.00000000	      0.00000000	      0.00000000	      0.00000000	      0.00000000	      0.00000000	    335.83915814	    216.54330449	      0.00000000	      0.00000000	      0.00000000	      2.07593953	      0.00000000	      0.00000000	      0.00000000	      0.00000000	      0.00000001	      0.00000000	     84.26488000	    -70.70660000	      0.00000000
      0.20828847	      9.75126281	      7.17435359	      7.70214498	      3.33339296	      3.91122324	      4.12238209	      4.14817596	      5.24546241	      7.68777588	      8.44272381	      1.94905328	      7.12771172	      5.18068411	      3.69045239	      3.11979140	      5.19252571	      5.35248809	      2.81078830	      1.96528155	      4.63022276	      7.04114174	      5.27822823	     25.39581760	     16.07815808	      4.56922420	      3.30206199	      5.71272019	     21.92886281	     16.18076089	     17.09086127	     23.17381263	      2.00021608	      1.24969327	     10.22169876	     18.70545247	      3.20450668	      3.42517854	     16.44769273	      5.62691313	     11.58422134	      8.66883861	      8.70177628	      1.89737421	      9.75126281	      7.17435359	      7.70214498	      3.33339296	      3.91122324	      4.12238209	     11.87506928	      5.26295934	     10.31544735	      9.09303901	      1.90324633	      7.12771172	      5.18068411	      3.69045239	      3.11979140	      5.19252571	      4.84358505	      2.81078830	      1.95976236	      4.63022276	      7.04114174	      5.27822823	     25.39581760	     16.07815808	      4.56922420	      3.30206199	      5.71272019	     14.26153034	      8.39805001	      9.67706638	     10.39560363	     20.25262825	      9.40805464	     43.43562551	     47.40667102	      4.05593502	      4.13179486	     11.17570801	      5.91705183	     15.94123180	      2.48703563	      7.36773560	      2.31444794	     31.36588625	     31.36588625	     11.51496309	     11.51496309	     29.06686733	     29.06686733	      2.76307435	     50.99597937	     -9.56042239	      5.21997485	     -0.02578839	      1.48581788	     -2.76307435	    -50.99597937	      9.56042239	     -1.74637766	      0.02558040	     -0.48301696	     -3.31599387	     20.97615968	     -3.40468921	      0.94473225	     -0.02138609	     -1.00501789	      3.31599387	    -20.97615968	      3.40468921	      0.28075727	      0.00368718	     -0.29758878	    169.48033147	    116.93426940	     45.02887902	    -21.35059424	      4.18355032	     69.51032418	   -169.48033147	   -116.93426940	    -45.02887902	      4.34458563	     -5.28534216	     -2.64165536	    423.94727159	    127.33336980	    -69.04363977	     30.34571694	     -7.46093603	    172.62215656	   -423.94727159	   -127.33336980	     69.04363977	     -3.41324244	      7.23951071	     -7.65758798	      0.00000000	      0.00000000	      0.00000000	      0.00000000	      0.00000000	      0.00000000	      0.00000000	      0.00000000	      0.00000000	      0.00000000	      0.00000000	      0.00000000	      0.00000000	      0.00000000	      0.00000000	      0.00000000	      0.00000000	      0.00000000	      0.00000000	      0.00000000	      0.00000000	      0.00000000	      0.00000000	      0.00000000	     -0.01299719	     -0.01617162	      0.00998166	     -0.00049962	      0.00028506	     -0.00018874	      0.01299719	      0.01617162	     -0.00998166	      0.00438700	     -0.00018213	      0.00541731	      0.00000000	      0.00000000	      0.00000000	      0.00000000	      0.00000000	      0.00000000	      0.00000000	      0.00000000	      0.00000000	      0.00000000	      0.00000000	      0.00000000	      0.00000000	      0.00000000	    335.61956450	    216.27358164	      0.00000000	      0.00000000	      0.00000000	      1.90659833	      0.00000000	      0.00000000	      0.00000000	      0.00000000	      0.00000001	      0.00000000	     84.26488000	    -70.70660000	      0.00000000
      0.21175344	      9.65321532	      7.10751894	      7.62950956	      3.30364211	      3.87881299	      4.08102775	      4.11910763	      5.20162722	      7.60671608	      8.36251863	      1.93253782	      7.06053180	      5.13487908	      3.65626620	      3.09020331	      5.13886858	      5.31522997	      2.78552932	      1.94748904	      4.58700028	      6.97524103	      5.22798974	     25.27351143	     15.93905314	      4.52754827	      3.28201045	      5.64397020	     21.80887308	     16.06137083	     16.96157147	     22.99264205	      1.93917565	      1.20558099	      9.88976710	     17.31248240	      3.49466776	      3.58618980	     16.33962647	      5.72555094	     11.73802767	      8.85667592	      7.99279095	      1.66351874	      9.65321532	      7.10751894	      7.62950956	      3.30364211	      3.87881299	      4.08102775	     11.73851704	      5.21048039	     10.19972855	      9.01002415	      1.88633908	      7.06053180	      5.13487908	      3.65626620	      3.09020331	      5.13886858	      4.81033013	      2.78552932	      1.94204590	      4.58700028	      6.97524103	      5.22798974	     25.27351143	     15.93905314	      4.52754827	      3.28201045	      5.64397020	     14.10316628	      8.31767225	      9.58279695	     10.29458621	     19.99880117	      9.28996492	     42.91152354	     47.18635968	      3.99955313	      4.07898436	     11.05503923	      5.84826290	     15.79394660	      2.46557065	      7.27584794	      2.28589069	     31.08530479	     31.08530479	     11.40321686	     11.40321686	     28.96612510	     28.96612510	      2.76307435	     50.99597937	     -9.56042239	      5.21997485	     -0.02578839	      1.48581788	     -2.76307435	    -50.99597937	      9.56042239	     -1.74637766	      0.02558040	     -0.48301696	     -3.31599387	     20.97615968	     -3.40468921	      0.94473225	     -0.02138609	     -1.00501789	      3.31599387	    -20.97615968	      3.40468921	      0.28075727	      0.00368718	     -0.29758878	    170.34716471	    116.69664261	     45.87481958	    -21.69748940	      4.21009078	     69.87680013	   -170.34716471	   -116.69664261	    -45.87481958	      4.36514395	     -5.32759340	     -2.67381736	    423.32377087	    127.19631422	    -67.71724789	     29.80180012	     -7.43665255	    172.37255028	   -423.32377087	   -127.19631422	     67.71724789	     -3.37826239	      7.19629613	     -7.64141417	      0.00000000	      0.00000000	      0.00000000	      0.00000000	      0.00000000	      0.00000000	      0.00000000	      0.00000000	      0.00000000	      0.00000000	      0.00000000	      0.00000000	      0.00000000	      0.00000000	      0.00000000	      0.00000000	      0.00000000	      0.00000000	      0.00000000	      0.00000000	      0.00000000	      0.00000000	      0.00000000	      0.00000000	      0.00000000	      0.00000000	      0.00000000	      0.00000000	      0.00000000	      0.00000000	      0.00000000	      0.00000000	      0.00000000	      0.00000000	      0.00000000	      0.00000000	      0.00000000	      0.00000000	      0.00000000	      0.00000000	      0.00000000	      0.00000000	      0.00000000	      0.00000000	      0.00000000	      0.00000000	      0.00000000	      0.00000000	      0.00000000	      0.00000000	    335.54817295	    216.59323923	      0.00000000	      0.00000000	      0.00000000	      2.30253681	      0.00000000	      0.00000000	      0.00000000	      0.00000000	      0.00000001	      0.00000000	     84.26488000	    -70.70660000	      0.00000000
